<?xml version="1.0" encoding="UTF-8"?>
<svg id="Layer_1" xmlns="http://www.w3.org/2000/svg" version="1.1" viewBox="0 0 1019.9 603.9">
  <!-- Generator: Adobe Illustrator 29.0.0, SVG Export Plug-In . SVG Version: 2.1.0 Build 186)  -->
  <defs>
    <style>
      .st0 {
        fill: #0a4038;
      }

      .st1 {
        fill: #c7201d;
      }

      .st2 {
        fill: #0a2472;
      }
    </style>
  </defs>
  <g>
    <path class="st2" d="M524.6,215l-105.7,51.8-62.8,3.2c-54.9,6.6-112.1,15.2-163.2,36.8-25.9,11-74,35.6-51.3,70.2-.7.6-11.9-7.1-13.3-8.2-27-19.6-44.6-41.6-18.2-71.8,42.6-48.8,179.1-72,242-78,50.7-4.8,112.3-8,163-5,3.2.2,6.2,1.5,9.5,1h0Z"/>
    <path class="st2" d="M783.6,380c14.5-13,14.5-28.9,2-43.5-29.6-34.2-133.1-56-177.6-62.4-22.9-3.3-45.1-3.8-67.8-6.2-1-.1-3.8-.4-3.6-1.9l97.5-38.1c52.2,7.4,169.2,31,196.3,80.8,15.5,28.5-8.7,47.9-30.5,62.1-5.1,3.3-10.8,6.5-16.3,9.2h0Z"/>
  </g>
  <g>
    <path class="st1" d="M1007.3,71.7l-639.7,255.3c-2.5-2.3,14.5-11.7,16-12.5,40.9-22.9,91.1-43.3,134.4-62.6,157.5-70.4,317.6-135,475.6-204.4,12.8-4.1,20,15,13.8,24.2h0Z"/>
    <path class="st1" d="M979.3,32.7c-205.8,93.9-411.4,188.4-619.7,276.8l-6,1.5c2.2-3,6.2-5.2,9.3-7.2,22.5-13.5,49.6-25.8,73.3-37.7C610.9,178.9,788.4,97.3,963,9.9c13.7-5.6,23.5,11.9,16.2,22.7h.1Z"/>
  </g>
  <g>
    <path class="st0" d="M829.6,361c-8.5,22.3-21.8,42.5-35.6,61.9-131.8,69.3-288,81.2-434.4,66.2l9.8,2.7c136.4,20.8,280.9,9.4,407.2-47.7,2,1.7-30,33-33,35.5-11.7,9.8-38.5,17.3-54,22-84.4,25.5-175,33.6-263,29.5l8.6,1.9c71.6,7.1,144.2,4.1,214.6-11.2,21.5-4.7,42.5-11.2,63.8-16.7-58.5,49-134.5,78.5-210.5,86-167.5,16.6-334.5-74.5-401.5-229.5l27.1,19.9c81.1,45.4,178.5,57.9,270.4,62.6,91.9,4.7,194.5,0,287.3-20.7,50.1-11.2,104.6-27.5,143.2-62.3h0Z"/>
    <path class="st0" d="M35.9,254.3c-9.4,8.5,1.5,26.1,6.9,34,17.5,25.9,49.7,51.5,53.6,84.5,1.3,10.9-5.9,7.9-11.3,2.2-17.3-18.2-42.6-50.8-57.3-71.7-12.4-17.6-26.3-39.3-9.7-59.3,29.8-36.1,71.8,16.1,89.3,39.5l-13.2,13.4c-10.4-12.3-21.8-26.6-34.1-37-6.1-5.1-16.7-12.5-24.2-5.7h0Z"/>
    <path class="st0" d="M898.2,254.3c-10-9.9-28.3,10.5-35.2,17.6-8.2,8.5-15.1,18.2-23,27-2.4-3.5-12.4-11.5-11.3-15.2.5-1.8,11.2-14.4,13.3-16.7,16.4-18.3,45.8-50.4,71-27,20.9,19.5,6.3,43.8-6.7,62.3-15.1,21.4-37.7,50.6-55.3,69.7-10.9,11.9-15.3,8.7-11.9-6.9,5.9-26.7,31.9-48.7,47.7-70.3,6.8-9.2,22.1-29.8,11.3-40.6h.1Z"/>
  </g>
  <g>
    <path class="st1" d="M489.2,34.4c3.8,3.6,10.2,13.2,11.1,18.4,7.5,44.4-60.7,52.1-59.4,85.6.7,17.8,23,27.6,19.2,45.7l-4.5,8.9c2.6-25.9-33.1-23.9-44.5-40.1-10-14.1-4.1-30.6,6.9-41.9,22.3-22.9,94.5-41.4,58.5-84,1.2-1,11.2,6,12.7,7.3h0ZM434.6,161c-2.5-6.5-7-12.4-7.9-19.6s1.2-13.4,1.4-20.4c-4.7,3.7-11.9,14.3-11.3,20.2.8,8.3,10.2,17.2,17.8,19.7h0Z"/>
    <path class="st1" d="M524.6,189c.9-9.1-6.2-17.5-10-25.5-2.3-1-.5,1.5-.2,2.2,3.1,6.9,6.8,12.2,7,19.9,0,1.2,1,3.6-.8,3.4-3-11.9-14.7-15.2-20.8-26.7-23.3-43.8,38.6-55.5,48.8-87.8l3-13.5c2.6,10.7,2.5,19.5-1.8,29.7-7.5,18-32.8,30.6-31.2,51.8.8,10.3,9.9,19,11,30,.6,5.8,1,13.4-5,16.5h0Z"/>
  </g>
  <g>
    <path class="st1" d="M446.6,424c-.2-1.7,2.3-.9,3.5-1,81.1-3,178.4-2.3,253.2-37.8,17.4-8.3,43.8-22.7,24.3-43.7-21.6-23.3-83-40.2-114-47l-82-13.5c6.3-1.8,11.6-.2,17.5,0,43.9,1.6,88.2,8,130.3,20.7,29.4,8.9,110.8,38.1,63.8,78.3-39.8,34-149.2,45.3-201,47-31.5,1-64.3.4-95.5-3h0Z"/>
    <path class="st1" d="M572.2,376.6c-27.2,27.6-127.8,26.1-163.7,17.9-17.2-3.9-58.5-19.3-31.5-40.5,22.8-17.9,96.6-22.3,119.8-4.8,13.1,9.9,7.8,19.8-5.3,25.3-11.7,4.9-30.5,6.6-42.5,2.6-18.5-6.2-13-18.5,4.1-20,4.1-.4,25,.9,27.2,3.2.5.5.5,2.7,1.2,3.8l-30,1.5c-2.9,1.1,2.1,2.8,3,3,9.6,2.6,22.5,2.3,31.3-2.7,18.7-10.6-15.5-17.5-23.1-18.5-20.6-2.9-50.9-1.6-69.7,7.7-15.2,7.6-14.8,15.5.1,22.9,33.7,16.6,120.2,14.4,154.9,0,20.1-8.3,21.9-17.4,2.5-28.5-11.2-6.4-25.4-10.2-38-12.5l10.5-1c11.3,1.2,22.6,3.4,33.1,7.9,13.2,5.6,30.5,18,16,32.8h0v-.2Z"/>
    <path class="st1" d="M389.6,282c-.5,1.8-4.4,2.2-6,2.5-49.4,11.2-159,28.9-192,68-16.1,19-3.7,34.2,11,48.5-21.5-2.7-41.2-22.5-32.5-45,13.1-34,95.2-55.7,128.3-62.7,29.7-6.3,60.8-11,91.2-11.3h0Z"/>
    <path class="st1" d="M567.6,399l52.2-15.2c22.8-9,44.1-22.5,13.1-40.5-20.9-12.1-54.1-18.4-78-22-40.4-6.1-81-8.1-121.8-7.2l-3.5-1,41.5-4c43.5-1.9,148.2,5,182,33.1,19.5,16.2,9.9,31.3-9.1,40.9-22.5,11.3-51.5,14.4-76.4,16.1h0v-.2Z"/>
    <path class="st1" d="M334.6,319l-54,16.5c-34,14.5-64.6,35.3-19.3,63.3,12.6,7.8,26.6,12.7,40.5,17.5l48.8,12.7c-21.4-.8-44.4-3-65.2-8.3-51.8-13.1-97.9-53.8-25.5-84.9,22.7-9.7,50.1-15.9,74.7-16.8h0Z"/>
    <path class="st1" d="M349.6,340l-31.9,14.6c-30.2,20.3,1.8,36.5,22,43.9,22.9,8.4,47.2,11.9,71,17l8,2.5c-25.6.2-52.5-2.5-77.2-9.3-15-4.1-50.6-16.5-49.7-36.1.9-20.2,41.5-31.8,57.9-32.6h0Z"/>
  </g>
</svg>